<?xml version="1.0" standalone="no"?>
<!DOCTYPE svg PUBLIC "-//W3C//DTD SVG 20010904//EN"
 "http://www.w3.org/TR/2001/REC-SVG-20010904/DTD/svg10.dtd">
<svg version="1.0" xmlns="http://www.w3.org/2000/svg"
 width="886.000000pt" height="302.000000pt" viewBox="0 0 886.000000 302.000000"
 preserveAspectRatio="xMidYMid meet">

<g transform="translate(0.000000,302.000000) scale(0.100000,-0.100000)"
fill="#000000" stroke="none">
<path d="M4475 2267 c-76 -44 -95 -75 -95 -155 0 -59 3 -67 33 -97 110 -110
295 -20 272 132 -14 96 -133 164 -210 120z"/>
<path d="M6043 2256 c-63 -31 -77 -58 -77 -140 0 -69 0 -69 42 -106 46 -41 93
-54 143 -40 77 22 119 77 119 155 0 60 -23 99 -77 132 -47 28 -94 28 -150 -1z"/>
<path d="M1110 1851 c-58 -13 -92 -30 -88 -44 3 -6 22 -20 44 -31 79 -37 74
-8 74 -395 0 -359 2 -378 45 -462 37 -71 147 -144 262 -174 31 -8 104 -18 162
-21 326 -19 586 94 586 256 0 58 -19 82 -81 106 -37 14 -48 15 -74 4 -37 -15
-91 -76 -119 -134 -25 -51 -49 -80 -81 -97 -33 -18 -108 -38 -142 -39 -42 0
-140 28 -168 48 -79 58 -98 167 -44 249 23 37 103 69 254 103 364 82 473 160
473 339 0 133 -74 222 -228 278 -94 33 -349 23 -427 -18 -10 -5 -24 -9 -32 -9
-7 0 -37 -16 -65 -35 -28 -19 -55 -35 -60 -35 -5 0 -16 -7 -24 -14 -13 -13
-15 -10 -20 25 -6 45 -19 64 -57 84 -34 18 -143 27 -190 16z m734 -182 c77
-40 116 -94 116 -161 0 -39 -28 -93 -57 -111 -6 -4 -18 -13 -25 -20 -31 -28
-76 -45 -168 -63 -14 -3 -34 -9 -45 -13 -11 -5 -45 -16 -75 -26 -30 -11 -69
-27 -87 -37 -27 -16 -35 -17 -53 -6 -21 12 -22 18 -17 103 12 193 85 299 236
342 50 14 140 9 175 -8z"/>
<path d="M6930 1854 c-142 -25 -200 -41 -260 -72 -87 -46 -133 -109 -134 -185
-1 -43 3 -52 32 -78 26 -24 41 -29 81 -29 64 0 101 30 146 119 41 82 65 108
124 134 91 40 239 18 297 -46 46 -50 54 -72 54 -140 0 -55 -4 -67 -28 -95 -32
-36 -129 -82 -172 -82 -16 0 -31 -4 -34 -9 -3 -5 -20 -11 -38 -14 -18 -3 -62
-11 -98 -17 -36 -6 -74 -15 -85 -19 -11 -5 -40 -18 -65 -29 -25 -11 -56 -23
-70 -27 -59 -18 -108 -63 -137 -125 -88 -190 31 -369 273 -411 98 -17 245 -6
341 26 78 26 175 83 193 114 8 14 9 14 10 -2 0 -11 6 -31 14 -45 8 -15 17 -35
20 -44 16 -52 191 -74 270 -33 22 11 40 25 40 30 1 6 -18 19 -40 30 -79 38
-73 7 -76 403 -3 343 -4 359 -25 412 -43 105 -130 171 -283 217 -45 13 -302
26 -350 17z m366 -530 c9 -36 -2 -174 -17 -210 -35 -85 -44 -102 -72 -131 -17
-18 -36 -33 -41 -33 -6 0 -22 -9 -36 -20 -14 -11 -35 -20 -47 -20 -12 0 -25
-4 -28 -10 -9 -14 -97 -12 -147 3 -55 16 -123 81 -136 130 -12 43 -2 92 27
129 31 39 112 77 234 108 64 16 137 40 164 53 66 33 91 34 99 1z"/>
<path d="M4635 1833 c-11 -3 -41 -20 -68 -39 -26 -19 -51 -34 -55 -34 -23 0
-88 -70 -110 -119 l-24 -56 0 -421 c0 -232 3 -427 6 -433 10 -16 278 -15 294
1 9 9 12 144 12 548 0 523 -2 565 -29 559 -4 -1 -15 -4 -26 -6z"/>
<path d="M5044 1830 c-20 -8 -20 -11 -17 -549 1 -298 5 -546 8 -552 8 -12 271
-12 296 1 18 10 19 25 19 403 -1 216 -5 411 -9 435 -11 58 8 82 72 89 l48 6
84 -86 c96 -97 131 -112 191 -84 100 48 94 195 -10 245 -81 39 -168 52 -218
33 -13 -5 -41 -14 -63 -21 -22 -7 -54 -23 -72 -36 -39 -29 -74 -31 -98 -4 -22
24 -162 115 -190 123 -11 3 -29 2 -41 -3z"/>
<path d="M6226 1833 c-10 -3 -43 -20 -72 -39 -29 -19 -57 -34 -62 -34 -17 0
-102 -99 -102 -119 0 -11 -4 -23 -10 -26 -5 -3 -10 -21 -10 -40 0 -19 -4 -37
-10 -40 -6 -4 -10 -146 -10 -394 0 -363 1 -389 18 -404 27 -24 273 -25 296 -1
14 14 16 77 16 548 0 519 -2 561 -29 555 -4 -1 -14 -3 -25 -6z"/>
<path d="M2346 1815 c-3 -8 -2 -15 3 -15 4 0 25 -15 47 -34 26 -23 43 -47 51
-77 20 -74 28 -289 23 -619 -3 -173 -2 -323 3 -332 7 -16 24 -18 142 -18 123
0 135 2 145 20 7 13 9 154 8 419 l-3 400 30 37 c46 56 89 76 158 71 46 -3 63
-9 87 -32 52 -50 54 -68 60 -505 l5 -405 145 0 145 0 5 420 c3 231 7 421 8
422 57 67 80 85 126 98 85 24 152 -3 194 -80 15 -27 17 -77 17 -435 0 -223 4
-411 8 -417 6 -9 45 -13 137 -13 118 0 130 2 140 19 6 13 10 164 10 424 0 446
-2 463 -63 553 -48 72 -98 93 -219 94 -53 0 -107 -4 -120 -9 -13 -5 -43 -17
-68 -26 -77 -30 -109 -45 -114 -54 -3 -5 -17 -12 -31 -15 -20 -5 -35 2 -73 33
-70 59 -112 73 -217 73 -104 0 -158 -15 -283 -79 -46 -24 -86 -43 -88 -43 -2
0 -4 26 -4 58 0 32 -5 63 -12 70 -8 8 -68 12 -204 12 -161 0 -193 -2 -198 -15z"/>
</g>
</svg>
