<?xml version="1.0" standalone="no"?>
<!DOCTYPE svg PUBLIC "-//W3C//DTD SVG 20010904//EN"
 "http://www.w3.org/TR/2001/REC-SVG-20010904/DTD/svg10.dtd">
<svg version="1.0" xmlns="http://www.w3.org/2000/svg"
 width="1354.000000pt" height="903.000000pt" viewBox="0 0 1354.000000 903.000000"
 preserveAspectRatio="xMidYMid meet">

<g transform="translate(0.000000,903.000000) scale(0.100000,-0.100000)"
fill="#000000" stroke="none">
<path d="M0 4515 l0 -4515 6770 0 6770 0 0 4515 0 4515 -6770 0 -6770 0 0
-4515z m9610 2570 c203 -7 348 -20 382 -35 13 -5 64 -14 113 -19 121 -13 247
-35 264 -46 8 -4 39 -14 70 -20 94 -21 242 -63 254 -73 7 -5 29 -12 49 -16 21
-4 64 -20 95 -35 32 -16 76 -34 98 -41 22 -7 51 -20 65 -30 14 -9 33 -20 43
-23 10 -4 70 -41 132 -82 124 -83 272 -209 350 -300 73 -85 155 -197 155 -211
0 -7 4 -14 8 -16 10 -4 82 -151 82 -167 0 -7 6 -27 14 -44 57 -134 97 -287
107 -416 4 -58 8 -778 8 -1598 l1 -1493 31 -65 c48 -101 70 -116 419 -269 127
-56 138 -71 101 -144 -20 -38 -82 -84 -151 -112 -19 -7 -40 -17 -45 -21 -6 -4
-29 -12 -50 -18 -22 -5 -53 -14 -70 -19 -252 -84 -601 -83 -850 1 -100 33
-119 41 -145 60 -13 9 -28 17 -33 17 -18 0 -128 94 -148 126 -31 51 -74 144
-90 194 -9 30 -14 89 -13 172 0 71 -2 128 -6 128 -4 0 -35 -34 -70 -75 -118
-144 -392 -344 -545 -400 -27 -10 -59 -24 -70 -32 -11 -7 -25 -13 -33 -13 -7
0 -32 -9 -54 -20 -23 -11 -46 -20 -52 -20 -5 0 -28 -8 -50 -19 -40 -18 -60
-24 -181 -56 -33 -8 -80 -22 -105 -30 -25 -8 -59 -15 -76 -15 -17 0 -51 -7
-75 -16 -24 -8 -84 -20 -134 -25 -49 -5 -120 -17 -157 -26 -99 -23 -834 -15
-892 10 -21 9 -53 17 -70 17 -30 0 -81 10 -251 50 -128 30 -285 87 -395 145
-139 73 -212 120 -300 194 -155 130 -249 236 -332 375 -27 44 -48 82 -48 84 0
3 -13 40 -29 81 -16 42 -38 105 -49 141 -48 151 -55 485 -13 604 12 33 21 66
21 75 0 9 16 55 35 101 19 46 35 88 35 93 0 4 8 20 19 35 10 15 40 60 67 101
64 97 200 231 308 306 117 81 257 164 278 165 9 0 19 4 22 9 3 4 34 18 68 31
35 12 101 40 148 62 46 22 109 46 140 54 30 8 69 20 85 28 46 21 193 65 260
77 33 6 72 17 87 25 15 8 37 14 50 14 13 0 47 9 76 20 29 11 66 20 82 20 17 0
45 6 63 14 18 7 59 16 92 21 33 4 74 13 91 20 17 7 51 16 75 19 24 4 73 16
109 26 100 29 243 60 276 60 16 0 45 5 64 11 19 6 64 17 100 24 36 7 79 18 95
23 17 6 64 20 105 32 41 12 90 28 107 36 18 8 50 22 70 31 125 53 265 150 338
232 16 19 35 40 42 46 21 21 90 159 96 193 4 19 14 48 22 66 30 62 11 403 -25
468 -6 10 -10 23 -10 29 0 6 -16 47 -34 91 -46 104 -154 233 -249 296 -70 45
-81 52 -107 63 -14 6 -37 17 -52 25 -14 8 -35 14 -46 14 -11 0 -25 6 -31 14
-6 8 -32 17 -57 21 -24 3 -60 13 -79 21 -85 35 -596 42 -713 9 -26 -7 -66 -16
-90 -19 -23 -4 -59 -15 -80 -26 -20 -11 -43 -20 -50 -20 -8 0 -28 -6 -45 -14
-18 -8 -53 -24 -80 -36 -75 -33 -128 -70 -199 -140 -106 -105 -137 -152 -219
-335 -5 -11 -13 -27 -18 -35 -5 -8 -28 -53 -51 -100 -23 -47 -45 -92 -49 -100
-4 -8 -20 -40 -36 -72 -17 -33 -60 -89 -105 -135 -91 -92 -108 -106 -152 -129
-18 -9 -40 -22 -48 -29 -8 -7 -28 -15 -45 -18 -16 -3 -50 -11 -75 -17 -103
-28 -305 -1 -420 57 -82 42 -182 129 -229 200 -17 25 -45 91 -62 147 -31 98
-32 104 -21 186 10 82 54 235 73 255 5 5 9 15 9 23 0 17 83 134 153 216 93
108 284 249 452 334 102 52 344 146 415 162 30 7 87 23 125 35 97 33 278 75
319 75 18 0 53 7 76 15 23 8 64 15 91 15 27 0 102 9 166 20 112 18 506 41 598
34 22 -2 119 -6 215 -9z m-8361 -6 c79 -5 159 -16 179 -24 19 -8 43 -15 54
-15 28 0 158 -46 205 -73 77 -43 121 -76 158 -119 40 -46 105 -170 105 -201 0
-10 5 -28 11 -39 7 -12 11 -70 11 -137 -1 -64 2 -122 6 -127 4 -7 34 18 71 60
85 94 270 247 371 306 91 55 220 120 236 120 8 0 25 6 37 14 21 13 104 41 357
120 63 20 144 41 179 47 35 5 72 14 82 19 10 6 33 10 51 10 18 0 80 9 138 21
95 19 141 21 490 21 367 1 440 -3 555 -31 22 -6 67 -14 100 -20 88 -14 259
-64 345 -101 41 -17 94 -38 116 -45 23 -7 50 -18 60 -24 11 -6 35 -18 54 -26
52 -23 93 -47 108 -62 8 -7 28 -21 45 -30 46 -23 76 -47 187 -148 133 -121
198 -204 300 -385 23 -42 64 -155 85 -235 37 -145 47 -262 35 -405 -14 -173
-19 -204 -50 -290 -67 -188 -127 -303 -210 -403 -53 -64 -245 -237 -264 -237
-3 0 -41 -24 -85 -52 -124 -82 -151 -98 -169 -98 -9 0 -32 -9 -50 -20 -19 -11
-50 -27 -70 -34 -20 -8 -62 -24 -92 -36 -30 -12 -104 -37 -165 -56 -60 -20
-125 -42 -143 -50 -18 -8 -44 -14 -58 -14 -14 0 -38 -7 -53 -15 -16 -8 -60
-21 -100 -30 -39 -9 -73 -20 -76 -25 -3 -5 -27 -12 -53 -16 -26 -3 -55 -11
-65 -16 -17 -9 -123 -34 -262 -63 -38 -8 -79 -19 -90 -24 -11 -5 -56 -15 -100
-21 -44 -6 -102 -18 -129 -26 -27 -8 -66 -14 -87 -14 -20 0 -52 -6 -70 -14
-19 -7 -61 -17 -94 -21 -33 -4 -72 -13 -87 -21 -15 -8 -35 -14 -46 -14 -18 0
-125 -29 -187 -51 -16 -6 -48 -15 -70 -20 -22 -6 -50 -17 -62 -25 -12 -8 -27
-14 -33 -14 -7 0 -42 -15 -80 -34 -182 -91 -347 -253 -404 -396 -10 -25 -25
-58 -34 -75 -25 -45 -31 -388 -8 -445 9 -22 16 -51 16 -64 0 -66 133 -272 242
-376 61 -58 263 -160 315 -160 10 0 27 -6 38 -14 18 -12 97 -30 180 -41 89
-12 376 -16 485 -7 134 11 196 23 275 53 28 10 56 19 62 19 24 0 239 103 282
134 90 67 251 294 251 355 0 10 7 24 15 31 8 7 15 17 15 23 0 39 160 313 235
400 177 207 374 272 635 210 108 -25 202 -84 300 -185 60 -62 88 -119 117
-236 25 -99 26 -109 13 -186 -11 -74 -47 -189 -70 -226 -6 -8 -19 -34 -31 -56
-25 -52 -128 -176 -194 -235 -27 -25 -68 -63 -90 -84 -90 -87 -256 -182 -500
-285 -11 -5 -52 -23 -92 -39 -39 -17 -81 -31 -93 -31 -12 0 -31 -5 -42 -11
-12 -7 -47 -18 -77 -25 -31 -7 -83 -19 -116 -27 -222 -54 -340 -76 -450 -83
-55 -3 -120 -13 -145 -22 -39 -14 -107 -16 -535 -16 -423 1 -497 4 -544 18
-30 9 -82 16 -115 16 -34 0 -79 5 -101 11 -22 6 -67 15 -100 21 -100 15 -247
49 -295 66 -25 9 -81 26 -125 38 -92 25 -153 46 -210 73 -22 10 -67 31 -100
45 -33 15 -67 31 -75 37 -8 5 -32 18 -53 29 -268 146 -540 418 -658 660 -56
115 -88 198 -96 245 -3 17 -10 36 -16 43 -6 7 -14 32 -17 55 -4 23 -15 83 -25
132 -15 83 -17 212 -15 1622 1 1643 3 1581 -49 1653 -43 58 -84 90 -177 134
-21 10 -46 22 -54 27 -15 9 -31 17 -95 45 -16 7 -61 25 -100 40 -95 35 -101
42 -89 101 8 43 14 51 76 93 119 82 387 152 643 169 11 0 85 -4 164 -10z
m5211 -2254 c0 -8 17 -45 37 -82 64 -117 277 -299 360 -308 23 -2 42 -19 43
-37 0 -4 -44 -29 -97 -55 -75 -36 -115 -64 -170 -117 -76 -73 -143 -162 -143
-188 0 -9 -6 -21 -14 -27 -7 -6 -21 -31 -31 -56 -9 -25 -22 -45 -29 -45 -19 0
-36 22 -36 46 0 13 -6 29 -14 36 -7 8 -22 34 -33 58 -11 25 -58 86 -105 135
-81 85 -133 123 -260 187 -21 10 -38 25 -38 33 0 16 34 38 43 29 3 -4 22 4 42
16 19 12 53 32 75 43 66 36 218 193 245 252 12 29 28 56 34 59 6 4 11 15 11
24 0 10 7 28 17 41 l16 24 24 -27 c12 -15 23 -33 23 -41z"/>
<path d="M10265 4629 c-243 -125 -262 -133 -425 -196 -81 -30 -252 -78 -317
-88 -26 -4 -53 -11 -59 -16 -7 -5 -40 -14 -75 -19 -89 -12 -218 -43 -294 -69
-16 -5 -57 -17 -90 -26 -117 -32 -246 -75 -315 -107 -131 -60 -160 -75 -220
-112 -135 -84 -273 -209 -315 -285 -86 -159 -100 -212 -99 -361 1 -129 13
-193 53 -280 48 -106 154 -234 262 -317 51 -39 202 -122 224 -123 6 0 28 -9
50 -20 22 -11 51 -20 65 -20 14 0 36 -7 50 -15 14 -8 46 -14 72 -15 26 0 80
-5 122 -10 58 -9 113 -7 236 4 152 15 185 22 323 67 31 10 63 19 70 19 12 0
106 47 182 90 228 129 448 365 564 604 23 46 41 90 41 97 0 8 7 22 15 33 8 10
19 44 26 75 6 31 15 65 19 76 16 39 53 211 60 285 5 41 15 131 24 200 8 69 16
207 17 308 1 155 -1 186 -16 208 -55 84 -106 87 -250 13z"/>
<path d="M3640 6254 c-36 -7 -85 -13 -108 -13 -24 -1 -58 -7 -75 -15 -18 -7
-57 -19 -87 -26 -30 -6 -75 -21 -100 -32 -25 -11 -61 -27 -80 -35 -19 -9 -42
-20 -50 -25 -8 -4 -34 -17 -56 -27 -23 -11 -45 -24 -49 -31 -4 -6 -17 -15 -30
-20 -70 -26 -259 -196 -329 -295 -64 -90 -166 -243 -166 -250 0 -3 -13 -32
-28 -63 -16 -31 -36 -82 -46 -112 -10 -30 -26 -77 -36 -105 -10 -27 -21 -63
-24 -80 -3 -16 -13 -66 -22 -110 -9 -44 -18 -96 -20 -115 -1 -19 -10 -87 -18
-150 -10 -73 -15 -197 -16 -340 l0 -225 31 -38 c27 -32 36 -37 74 -37 39 0
123 30 200 73 11 6 49 26 85 45 36 18 70 37 75 41 15 11 172 71 185 71 7 0 26
6 43 14 35 14 92 36 147 55 57 20 250 71 325 86 144 29 217 45 226 51 5 3 58
18 117 34 174 46 263 74 349 112 24 10 46 18 49 18 4 0 21 10 38 23 17 13 56
36 86 51 135 69 256 176 333 294 79 122 105 197 112 327 5 85 2 114 -18 196
-14 53 -31 107 -40 120 -8 13 -18 35 -22 49 -24 78 -165 231 -275 295 -10 6
-24 16 -31 22 -66 52 -255 128 -372 148 -42 8 -81 16 -85 19 -20 12 -231 13
-292 0z"/>
</g>
</svg>
