<?xml version="1.0" standalone="no"?>
<!DOCTYPE svg PUBLIC "-//W3C//DTD SVG 20010904//EN"
 "http://www.w3.org/TR/2001/REC-SVG-20010904/DTD/svg10.dtd">
<svg version="1.0" xmlns="http://www.w3.org/2000/svg"
 width="886.000000pt" height="886.000000pt" viewBox="0 0 886.000000 886.000000"
 preserveAspectRatio="xMidYMid meet">

<g transform="translate(0.000000,886.000000) scale(0.100000,-0.100000)"
fill="#000000" stroke="none">
<path d="M2058 5589 c-128 -14 -248 -69 -248 -113 0 -19 27 -37 110 -71 79
-33 117 -67 131 -117 6 -25 9 -272 9 -701 -2 -744 -3 -736 70 -876 139 -267
426 -410 888 -442 240 -16 468 7 692 72 305 88 499 262 502 453 1 53 -4 72
-26 111 -49 83 -167 143 -262 132 -112 -12 -183 -81 -276 -270 -64 -128 -105
-174 -202 -217 -83 -38 -163 -53 -281 -53 -185 -1 -324 49 -388 139 -95 134
-102 301 -19 426 61 93 175 144 467 208 436 96 629 161 784 265 162 107 234
246 234 445 0 116 -24 194 -89 291 -97 146 -265 250 -487 301 -134 31 -407 31
-562 0 -250 -50 -449 -144 -557 -265 l-37 -42 -1 51 c-1 150 -106 253 -278
269 -31 3 -68 7 -82 9 -14 1 -55 -1 -92 -5z m1383 -379 c116 -35 203 -105 248
-200 37 -78 37 -183 -1 -256 -35 -66 -103 -126 -198 -174 -95 -47 -143 -63
-310 -100 -177 -40 -244 -62 -368 -122 -114 -55 -147 -58 -158 -12 -10 41 3
271 20 350 36 168 96 285 193 373 147 136 395 197 574 141z"/>
<path d="M5545 5593 c-89 -8 -255 -36 -346 -58 -298 -74 -491 -217 -545 -403
-46 -159 77 -306 256 -306 124 0 205 72 297 263 36 73 70 127 95 152 181 175
644 167 780 -15 104 -140 102 -337 -5 -453 -81 -88 -155 -117 -493 -193 -479
-107 -677 -185 -822 -324 -74 -71 -114 -147 -137 -258 -20 -102 -19 -149 5
-242 60 -237 286 -417 590 -472 129 -23 373 -23 500 0 265 47 460 135 579 261
l51 54 0 -53 c0 -181 131 -276 378 -276 135 0 258 36 306 89 10 11 16 27 12
36 -3 8 -47 35 -98 59 -51 24 -104 55 -118 70 l-25 28 -2 695 c-3 775 -1 752
-73 899 -104 213 -324 355 -645 418 -158 31 -383 43 -540 29z m651 -1060 c15
-15 16 -34 11 -153 -15 -396 -163 -630 -452 -720 -88 -27 -222 -36 -297 -21
-124 26 -241 111 -289 208 -19 39 -24 64 -24 133 0 103 17 141 97 216 88 83
221 139 450 189 145 32 265 73 368 126 84 42 111 47 136 22z"/>
<path d="M4406 4606 c-21 -50 -87 -118 -140 -145 -25 -12 -46 -25 -46 -29 0
-4 20 -18 45 -31 52 -27 118 -95 142 -146 9 -19 20 -35 23 -35 4 0 15 18 25
40 21 47 106 130 153 149 17 7 32 16 32 20 0 3 -20 17 -45 30 -52 27 -118 95
-142 146 -9 19 -20 35 -25 35 -4 0 -14 -15 -22 -34z"/>
</g>
</svg>
